<svg xmlns="http://www.w3.org/2000/svg" width="41.155" height="66.751" viewBox="0 0 41.155 66.751">
  <g id="Group_2925" data-name="Group 2925" transform="translate(-508.74 -15.282)">
    <g id="vuesax_bold_apple" data-name="vuesax/bold/apple" transform="translate(508.74 15.282)">
      <g id="apple">
        <path id="BG_135" data-name="BG 135" d="M0,0H41.155V41.155H0Z" fill="none" opacity="0.58"/>
        <g id="Group" transform="translate(6.209 12.003)">
          <path id="Vector" d="M26.543,20.852A23.552,23.552,0,0,0,28.7,16.788a7.408,7.408,0,0,1-.977-13.375A8.481,8.481,0,0,0,21.313,0a9.635,9.635,0,0,0-3.79.823,6.994,6.994,0,0,1-2.589.617,8.5,8.5,0,0,1-2.9-.669A9.909,9.909,0,0,0,8.521,0,8.722,8.722,0,0,0,1.507,4.236C-.928,8.008-.5,15.073,3.428,21.109c1.406,2.161,3.292,4.578,5.745,4.613a5.263,5.263,0,0,0,2.435-.617,7.24,7.24,0,0,1,3.344-.789,6.954,6.954,0,0,1,3.327.789,5.047,5.047,0,0,0,2.384.617C23.148,25.687,25.137,23.012,26.543,20.852Z" transform="translate(0 0)" fill="#fff"/>
        </g>
        <path id="Vector-2" data-name="Vector" d="M6.364,0A6.9,6.9,0,0,1,4.855,5.059,6.135,6.135,0,0,1,.071,7.494,6.377,6.377,0,0,1,1.615,2.555,7.453,7.453,0,0,1,6.364,0Z" transform="translate(20.798 3.43)" fill="#fff"/>
        <path id="Vector-3" data-name="Vector" d="M0,0H41.155V41.155H0Z" fill="none" opacity="0"/>
      </g>
    </g>
    <text id="Premium_Reseller" data-name="Premium 
Reseller" transform="translate(528.74 69.033)" fill="#fff" font-size="9" font-family="SF Pro Display" font-weight="500"><tspan x="-18" y="0">Premium </tspan><tspan x="-15" y="11">Reseller</tspan></text>
  </g>
</svg>
